<?xml version="1.0" encoding="UTF-8"?>
<svg version="1.1" xmlns="http://www.w3.org/2000/svg" width="120" height="120">
<path d="M0 0 C39.6 0 79.2 0 120 0 C120 39.6 120 79.2 120 120 C80.4 120 40.8 120 0 120 C0 80.4 0 40.8 0 0 Z " fill="#FDFBFB" transform="translate(0,0)"/>
<path d="M0 0 C5.43350322 4.19191085 7.53036156 7.74342844 9.7265625 14.33203125 C9.7265625 21.26203125 9.7265625 28.19203125 9.7265625 35.33203125 C-7.4334375 35.33203125 -24.5934375 35.33203125 -42.2734375 35.33203125 C-42.2734375 12.33203125 -42.2734375 12.33203125 -37.2734375 3.33203125 C-28.0638712 -4.423393 -10.77641487 -6.07515022 0 0 Z " fill="#DF4142" transform="translate(76.2734375,31.66796875)"/>
<path d="M0 0 C0.99773438 -0.00315216 1.99546875 -0.00630432 3.0234375 -0.009552 C4.65152344 -0.00651566 4.65152344 -0.00651566 6.3125 -0.00341797 C7.41851562 -0.00437469 8.52453125 -0.00533142 9.6640625 -0.00631714 C12.00781308 -0.00699913 14.35156553 -0.00514351 16.6953125 -0.00097656 C20.29691788 0.00437139 23.89839853 -0.00092093 27.5 -0.00732422 C29.77083361 -0.00666344 32.04166714 -0.00538229 34.3125 -0.00341797 C35.94058594 -0.00645432 35.94058594 -0.00645432 37.6015625 -0.009552 C38.59929687 -0.00639984 39.59703125 -0.00324768 40.625 0 C41.50800781 0.00079559 42.39101562 0.00159119 43.30078125 0.00241089 C45.3125 0.12939453 45.3125 0.12939453 46.3125 1.12939453 C46.46577434 4.12119177 46.54415249 7.07395777 46.5625 10.06689453 C46.583125 10.90414062 46.60375 11.74138672 46.625 12.60400391 C46.63273437 13.80573242 46.63273437 13.80573242 46.640625 15.03173828 C46.65464355 16.13763306 46.65464355 16.13763306 46.66894531 17.26586914 C46.55131836 17.88083252 46.43369141 18.4957959 46.3125 19.12939453 C43.16083501 21.23050453 42.39644762 21.38336008 38.796875 21.40405273 C37.43030762 21.41835075 37.43030762 21.41835075 36.03613281 21.43293762 C35.05483398 21.43202621 34.07353516 21.43111481 33.0625 21.43017578 C32.0528418 21.43446091 31.04318359 21.43874603 30.00292969 21.44316101 C27.86784617 21.44890503 25.73274309 21.44940405 23.59765625 21.44506836 C20.3251828 21.44190678 17.05361174 21.46537268 13.78125 21.49072266 C11.70833448 21.49299541 9.63541652 21.49369925 7.5625 21.49267578 C6.58120117 21.50188553 5.59990234 21.51109528 4.58886719 21.52058411 C3.67782227 21.51435532 2.76677734 21.50812653 1.828125 21.50170898 C0.62591309 21.50265312 0.62591309 21.50265312 -0.60058594 21.50361633 C-3.24972015 21.02857819 -4.12719763 20.3033238 -5.6875 18.12939453 C-5.93142954 15.17320086 -6.01529815 12.45099953 -5.9375 9.50439453 C-5.93234375 8.71548828 -5.9271875 7.92658203 -5.921875 7.11376953 C-5.82416336 0.00524759 -5.82416336 0.00524759 0 0 Z " fill="#E14242" transform="translate(39.6875,72.87060546875)"/>
<path d="M0 0 C2.5 1.5 2.5 1.5 4 4 C4.60460397 6.80996894 4.65502602 9.19602896 4 12 C1.28707652 15.2883921 -0.34816929 15.90851499 -4.5625 16.5 C-8 16 -8 16 -10.4375 14.5 C-12.64099302 10.97441116 -12.79669284 8.04985528 -12 4 C-9.15871837 -0.73546938 -5.07616558 -0.99858995 0 0 Z " fill="#FDF5F5" transform="translate(64,36)"/>
<path d="M0 0 C0.99773438 -0.00315216 1.99546875 -0.00630432 3.0234375 -0.009552 C4.65152344 -0.00651566 4.65152344 -0.00651566 6.3125 -0.00341797 C7.41851562 -0.00437469 8.52453125 -0.00533142 9.6640625 -0.00631714 C12.00781308 -0.00699913 14.35156553 -0.00514351 16.6953125 -0.00097656 C20.29691788 0.00437139 23.89839853 -0.00092093 27.5 -0.00732422 C29.77083361 -0.00666344 32.04166714 -0.00538229 34.3125 -0.00341797 C35.94058594 -0.00645432 35.94058594 -0.00645432 37.6015625 -0.009552 C38.59929687 -0.00639984 39.59703125 -0.00324768 40.625 0 C41.50800781 0.00079559 42.39101562 0.00159119 43.30078125 0.00241089 C45.3125 0.12939453 45.3125 0.12939453 46.3125 1.12939453 C46.39881874 2.47206866 46.41956473 3.81913775 46.41015625 5.16455078 C46.40693359 5.9734375 46.40371094 6.78232422 46.40039062 7.61572266 C46.38782227 8.89092773 46.38782227 8.89092773 46.375 10.19189453 C46.37048828 11.04589844 46.36597656 11.89990234 46.36132812 12.77978516 C46.34950373 14.89635117 46.33156769 17.01288138 46.3125 19.12939453 C45.9825 19.12939453 45.6525 19.12939453 45.3125 19.12939453 C44.9825 13.84939453 44.6525 8.56939453 44.3125 3.12939453 C20.0575 2.63439453 20.0575 2.63439453 -4.6875 2.12939453 C-4.6875 7.40939453 -4.6875 12.68939453 -4.6875 18.12939453 C-5.0175 18.12939453 -5.3475 18.12939453 -5.6875 18.12939453 C-5.71434312 15.31683172 -5.73426188 12.50452212 -5.75 9.69189453 C-5.75837891 8.88945313 -5.76675781 8.08701172 -5.77539062 7.26025391 C-5.7840143 5.21644232 -5.7397815 3.17255551 -5.6875 1.12939453 C-4.05995356 -0.49815191 -2.24611677 0.00202376 0 0 Z " fill="#CD4A4B" transform="translate(39.6875,72.87060546875)"/>
<path d="M0 0 C1.6328125 1.046875 1.6328125 1.046875 3.8828125 3.171875 C3.8828125 3.831875 3.8828125 4.491875 3.8828125 5.171875 C-4.0371875 5.171875 -11.9571875 5.171875 -20.1171875 5.171875 C-16.39073143 -2.28103713 -7.52400363 -2.94296821 0 0 Z " fill="#CD4F51" transform="translate(68.1171875,18.828125)"/>
<path d="M0 0 C1.7492214 -0.08142927 3.49954542 -0.13938541 5.25 -0.1875 C6.22453125 -0.22230469 7.1990625 -0.25710937 8.203125 -0.29296875 C11 0 11 0 15 3 C9.39 3 3.78 3 -2 3 C-1.34 2.67 -0.68 2.34 0 2 C0 1.34 0 0.68 0 0 Z " fill="#E03F42" transform="translate(54,19)"/>
<path d="M0 0 C0 0.66 0 1.32 0 2 C0.99 2.33 1.98 2.66 3 3 C2.01 3.495 2.01 3.495 1 4 C0.01 3.67 -0.98 3.34 -2 3 C-3.33363703 2.85596652 -4.67218046 2.75409577 -6.01171875 2.68359375 C-7.14770508 2.62075195 -7.14770508 2.62075195 -8.30664062 2.55664062 C-9.48516602 2.49766602 -9.48516602 2.49766602 -10.6875 2.4375 C-11.48478516 2.39431641 -12.28207031 2.35113281 -13.10351562 2.30664062 C-15.06881447 2.20072632 -17.03438496 2.09987449 -19 2 C-19 1.67 -19 1.34 -19 1 C-16.20837429 0.83262201 -13.41670379 0.66606598 -10.625 0.5 C-9.8309375 0.45230469 -9.036875 0.40460937 -8.21875 0.35546875 C-2.2265625 0 -2.2265625 0 0 0 Z " fill="#FEDEDC" transform="translate(71,27)"/>
<path d="M0 0 C1.32 0 2.64 0 4 0 C5.32229189 2.64458379 5.09677194 4.67761301 5.0625 7.625 C5.05347656 8.62789062 5.04445313 9.63078125 5.03515625 10.6640625 C5.02355469 11.43492188 5.01195313 12.20578125 5 13 C4.34 12.67 3.68 12.34 3 12 C3.061875 10.7625 3.12375 9.525 3.1875 8.25 C3.20362826 5.21788698 3.10651023 4.17751704 1.5 1.5 C1.005 1.005 0.51 0.51 0 0 Z " fill="#D7555A" transform="translate(64,36)"/>
<path d="M0 0 C0.66 0.33 1.32 0.66 2 1 C0.824375 1.928125 0.824375 1.928125 -0.375 2.875 C-2.96837647 4.89858661 -2.96837647 4.89858661 -5 7 C-5.33 6.01 -5.66 5.02 -6 4 C-3.94766315 1.7522025 -2.99332739 0.9977758 0 0 Z " fill="#FFEDE9" transform="translate(42,31)"/>
</svg>
