<?xml version="1.0" encoding="UTF-8"?>
<svg version="1.1" xmlns="http://www.w3.org/2000/svg" width="96" height="96">
<path d="M0 0 C1.1317012 -0.0127597 2.2634024 -0.02551941 3.42939758 -0.03866577 C5.24361458 -0.04200424 5.24361458 -0.04200424 7.09448242 -0.04541016 C8.35201828 -0.05206696 9.60955414 -0.05872375 10.90519714 -0.06558228 C13.56226795 -0.07569417 16.21892937 -0.08126674 18.87597656 -0.08007812 C22.25845159 -0.07987527 25.64008327 -0.10715621 29.02235889 -0.14162254 C32.27553387 -0.16938851 35.52870519 -0.16804469 38.78198242 -0.17041016 C39.98538773 -0.18478119 41.18879303 -0.19915222 42.42866516 -0.21395874 C50.74855712 -0.16909688 57.21630533 0.99796213 63.69604492 6.43896484 C64.62610352 7.54111328 64.62610352 7.54111328 65.57495117 8.66552734 C66.21303711 9.39513672 66.85112305 10.12474609 67.50854492 10.87646484 C70.54180315 15.37179718 71.38673483 19.7977447 71.42797852 25.15307617 C71.44073822 26.28477737 71.45349792 27.41647858 71.46664429 28.58247375 C71.46886993 29.79195175 71.47109558 31.00142975 71.47338867 32.24755859 C71.48337387 34.13386238 71.48337387 34.13386238 71.49356079 36.05827332 C71.50367269 38.71534412 71.50924526 41.37200554 71.50805664 44.02905273 C71.50785379 47.41152776 71.53513472 50.79315944 71.56960106 54.17543507 C71.59736703 57.42861004 71.59602321 60.68178136 71.59838867 63.93505859 C71.6127597 65.1384639 71.62713074 66.3418692 71.64193726 67.58174133 C71.5970754 75.90163329 70.43001638 82.3693815 64.98901367 88.84912109 C64.25424805 89.46916016 63.51948242 90.08919922 62.76245117 90.72802734 C62.0328418 91.36611328 61.30323242 92.00419922 60.55151367 92.66162109 C56.05618134 95.69487932 51.63023382 96.539811 46.27490234 96.58105469 C45.14320114 96.59381439 44.01149994 96.6065741 42.84550476 96.61972046 C41.03128777 96.62305893 41.03128777 96.62305893 39.18041992 96.62646484 C37.92288406 96.63312164 36.66534821 96.63977844 35.3697052 96.64663696 C32.7126344 96.65674886 30.05597298 96.66232143 27.39892578 96.66113281 C24.01645075 96.66092996 20.63481908 96.68821089 17.25254345 96.72267723 C13.99936848 96.7504432 10.74619715 96.74909938 7.49291992 96.75146484 C5.68781197 96.77302139 5.68781197 96.77302139 3.84623718 96.79501343 C-4.47365477 96.75015157 -10.94140299 95.58309255 -17.42114258 90.14208984 C-18.04118164 89.40732422 -18.6612207 88.67255859 -19.30004883 87.91552734 C-19.93813477 87.18591797 -20.5762207 86.45630859 -21.23364258 85.70458984 C-24.2669008 81.20925751 -25.11183249 76.78330999 -25.15307617 71.42797852 C-25.16583588 70.29627731 -25.17859558 69.16457611 -25.19174194 67.99858093 C-25.19396759 66.78910294 -25.19619324 65.57962494 -25.19848633 64.33349609 C-25.20514313 63.07596024 -25.21179993 61.81842438 -25.21865845 60.52278137 C-25.22877034 57.86571057 -25.23434291 55.20904915 -25.2331543 52.55200195 C-25.23295144 49.16952692 -25.26023238 45.78789525 -25.29469872 42.40561962 C-25.32246469 39.15244465 -25.32112087 35.89927333 -25.32348633 32.64599609 C-25.33785736 31.44259079 -25.35222839 30.23918549 -25.36703491 28.99931335 C-25.32217306 20.6794214 -24.15511404 14.21167318 -18.71411133 7.73193359 C-17.9793457 7.11189453 -17.24458008 6.49185547 -16.48754883 5.85302734 C-15.75793945 5.21494141 -15.02833008 4.57685547 -14.27661133 3.91943359 C-9.781279 0.88617537 -5.35533147 0.04124368 0 0 Z " fill="#2C5FF6" transform="translate(24.862548828125,-0.29052734375)"/>
<path d="M0 0 C11.45311106 6.09601073 16.0065773 14.01973189 20 26 C21.02698075 35.65756899 18.2812584 44.14773649 12.65625 51.96484375 C6.42284134 59.62429166 -2.12593024 64.04887474 -11.97265625 65.23828125 C-21.01606773 65.55944913 -29.25260049 62.40967199 -36.22265625 56.6796875 C-43.5959968 49.71147555 -47.94980417 40.6711425 -48.5 30.4375 C-47.92613137 19.8783172 -42.50961708 11.50961708 -35.25 4.25 C-24.24873344 -3.36626146 -12.37736444 -5.17669645 0 0 Z " fill="#FCFCFE" transform="translate(62,17)"/>
<path d="M0 0 C7.26 0 14.52 0 22 0 C22 7.26 22 14.52 22 22 C14.74 22 7.48 22 0 22 C0 14.74 0 7.48 0 0 Z " fill="#2C5FF6" transform="translate(37,37)"/>
</svg>
