<?xml version="1.0" encoding="UTF-8"?>
<svg version="1.1" xmlns="http://www.w3.org/2000/svg" width="96" height="96">
<path d="M0 0 C1.15179749 -0.0127597 2.30359497 -0.02551941 3.49029541 -0.03866577 C5.345065 -0.04200424 5.345065 -0.04200424 7.23730469 -0.04541016 C8.51845154 -0.05206696 9.79959839 -0.05872375 11.11956787 -0.06558228 C13.82958341 -0.07753504 16.5394717 -0.08126536 19.24951172 -0.08007812 C22.70039046 -0.07987546 26.15044081 -0.10713052 29.60112381 -0.14162254 C32.91736111 -0.16938988 36.23345293 -0.16804494 39.54980469 -0.17041016 C41.39242889 -0.19196671 41.39242889 -0.19196671 43.27227783 -0.21395874 C51.66522965 -0.16960651 58.21478417 0.9242417 64.71777344 6.47412109 C65.3378125 7.21791016 65.95785156 7.96169922 66.59667969 8.72802734 C67.23476562 9.46923828 67.87285156 10.21044922 68.53027344 10.97412109 C71.54414546 15.26003503 72.4104271 18.92802775 72.44970703 24.13134766 C72.46246674 25.28314514 72.47522644 26.43494263 72.4883728 27.62164307 C72.49059845 28.85815613 72.4928241 30.09466919 72.49511719 31.36865234 C72.50510239 33.29037262 72.50510239 33.29037262 72.51528931 35.25091553 C72.52724207 37.96093106 72.5309724 40.67081935 72.52978516 43.38085938 C72.52958249 46.83173812 72.55683755 50.28178846 72.59132957 53.73247147 C72.61909691 57.04870877 72.61775197 60.36480058 72.62011719 63.68115234 C72.63448822 64.90956848 72.64885925 66.13798462 72.66366577 67.40362549 C72.61931354 75.79657731 71.52546533 82.34613182 65.97558594 88.84912109 C64.85990234 89.77917969 64.85990234 89.77917969 63.72167969 90.72802734 C62.98046875 91.36611328 62.23925781 92.00419922 61.47558594 92.66162109 C57.189672 95.67549312 53.52167929 96.54177475 48.31835938 96.58105469 C47.16656189 96.59381439 46.0147644 96.6065741 44.82806396 96.61972046 C42.97329437 96.62305893 42.97329437 96.62305893 41.08105469 96.62646484 C39.15933441 96.63645004 39.15933441 96.63645004 37.1987915 96.64663696 C34.48877597 96.65858973 31.77888768 96.66232005 29.06884766 96.66113281 C25.61796891 96.66093015 22.16791857 96.68818521 18.71723557 96.72267723 C15.40099826 96.75044457 12.08490645 96.74909962 8.76855469 96.75146484 C7.54013855 96.76583588 6.31172241 96.78020691 5.04608154 96.79501343 C-3.34687028 96.7506612 -9.89642479 95.65681299 -16.39941406 90.10693359 C-17.01945312 89.36314453 -17.63949219 88.61935547 -18.27832031 87.85302734 C-18.91640625 87.11181641 -19.55449219 86.37060547 -20.21191406 85.60693359 C-23.22578609 81.32101966 -24.09206772 77.65302694 -24.13134766 72.44970703 C-24.14410736 71.29790955 -24.15686707 70.14611206 -24.17001343 68.95941162 C-24.17223907 67.72289856 -24.17446472 66.4863855 -24.17675781 65.21240234 C-24.18341461 63.93125549 -24.19007141 62.65010864 -24.19692993 61.33013916 C-24.2088827 58.62012362 -24.21261302 55.91023533 -24.21142578 53.20019531 C-24.21122312 49.74931657 -24.23847818 46.29926622 -24.2729702 42.84858322 C-24.30073754 39.53234592 -24.29939259 36.21625411 -24.30175781 32.89990234 C-24.31612885 31.67148621 -24.33049988 30.44307007 -24.3453064 29.1774292 C-24.30095417 20.78447738 -23.20710596 14.23492286 -17.65722656 7.73193359 C-16.54154297 6.801875 -16.54154297 6.801875 -15.40332031 5.85302734 C-14.29150391 4.89589844 -14.29150391 4.89589844 -13.15722656 3.91943359 C-8.87131262 0.90556157 -5.20331991 0.03927993 0 0 Z " fill="#AB9FF2" transform="translate(23.8408203125,-0.29052734375)"/>
<path d="M0 0 C3.23015697 2.40132934 5.01095025 4.8681924 6.22265625 8.65234375 C7.43026554 18.11804893 5.99578712 25.20734133 0.609375 32.98046875 C-3.70282862 38.44960505 -3.70282862 38.44960505 -8.08984375 39.27734375 C-10.77734375 38.65234375 -10.77734375 38.65234375 -12.77734375 36.65234375 C-13.60234375 37.47734375 -14.42734375 38.30234375 -15.27734375 39.15234375 C-17.94010007 41.41377555 -19.66174696 41.99589888 -23.15234375 41.96484375 C-24.34859375 41.86171875 -25.54484375 41.75859375 -26.77734375 41.65234375 C-27.43734375 39.67234375 -28.09734375 37.69234375 -28.77734375 35.65234375 C-29.1640625 36.13445313 -29.55078125 36.6165625 -29.94921875 37.11328125 C-30.47 37.74492188 -30.99078125 38.3765625 -31.52734375 39.02734375 C-32.0378125 39.65382812 -32.54828125 40.2803125 -33.07421875 40.92578125 C-35.53083279 43.4162019 -37.59459282 44.49693108 -41.06640625 44.953125 C-42.22269531 44.95892578 -42.22269531 44.95892578 -43.40234375 44.96484375 C-44.17835937 44.98160156 -44.954375 44.99835938 -45.75390625 45.015625 C-46.42164063 44.89574219 -47.089375 44.77585938 -47.77734375 44.65234375 C-50.67903293 40.29980998 -50.54645548 36.75896845 -49.77734375 31.65234375 C-45.08105629 18.06346635 -34.19076053 6.89961846 -21.58984375 0.21484375 C-15.11118129 -2.43603754 -6.3628628 -3.08746507 0 0 Z " fill="#FEFDF8" transform="translate(69.77734375,26.34765625)"/>
<path d="M0 0 C1.32 0.66 2.64 1.32 4 2 C3.67 3.65 3.34 5.3 3 7 C1.0625 7.5625 1.0625 7.5625 -1 8 C-2 7 -2 7 -2.1875 4.5625 C-2 2 -2 2 0 0 Z " fill="#ADA2F2" transform="translate(56,36)"/>
<path d="M0 0 C1.32 0.66 2.64 1.32 4 2 C3.67 3.65 3.34 5.3 3 7 C1.68 7 0.36 7 -1 7 C-1.625 4.625 -1.625 4.625 -2 2 C-1.34 1.34 -0.68 0.68 0 0 Z " fill="#AA9EF1" transform="translate(65,36)"/>
</svg>
