<?xml version="1.0" encoding="UTF-8"?>
<svg version="1.1" xmlns="http://www.w3.org/2000/svg" width="96" height="96">
<path d="M0 0 C31.68 0 63.36 0 96 0 C96 31.68 96 63.36 96 96 C64.32 96 32.64 96 0 96 C0 64.32 0 32.64 0 0 Z " fill="#FDFEFE" transform="translate(0,0)"/>
<path d="M0 0 C1.24136719 0.42023437 2.48273438 0.84046875 3.76171875 1.2734375 C7.07627858 2.53508513 10.17513619 3.97679966 13.3125 5.625 C14.59616661 32.75973721 14.59616661 32.75973721 5.26171875 44.12109375 C0.05029083 49.75832217 -6.79168877 56.22534194 -14.75 56.875 C-25.82921175 52.16044181 -34.84715676 43.67677083 -39.6875 32.625 C-40.69934947 29.35981198 -40.80329404 26.39427958 -40.78515625 22.984375 C-40.78193359 21.91445313 -40.77871094 20.84453125 -40.77539062 19.7421875 C-40.76701172 18.63101563 -40.75863281 17.51984375 -40.75 16.375 C-40.74548828 15.24835937 -40.74097656 14.12171875 -40.73632812 12.9609375 C-40.72455397 10.18223783 -40.7081084 7.40364591 -40.6875 4.625 C-36.88535387 3.24047635 -33.06957053 1.89812332 -29.25 0.5625 C-28.18072266 0.17255859 -27.11144531 -0.21738281 -26.00976562 -0.61914062 C-16.19151224 -4.01199271 -9.63819849 -3.32351672 0 0 Z " fill="#0604FA" transform="translate(61.6875,21.375)"/>
<path d="M0 0 C4.68171669 0.65023843 9.03697554 1.86027655 13.5 3.375 C14.45712891 3.68824219 14.45712891 3.68824219 15.43359375 4.0078125 C19.55071215 5.38860477 23.06567236 7.03283618 27 9 C27 16.92 27 24.84 27 33 C26.67 33 26.34 33 26 33 C25.67 31.02 25.34 29.04 25 27 C24.360625 26.896875 23.72125 26.79375 23.0625 26.6875 C18.93522674 25.76096927 14.99357051 24.38339371 11 23 C11 22.34 11 21.68 11 21 C10.28972656 20.81824219 9.57945313 20.63648437 8.84765625 20.44921875 C7.92855469 20.19785156 7.00945313 19.94648437 6.0625 19.6875 C5.14597656 19.44386719 4.22945312 19.20023438 3.28515625 18.94921875 C2.53105469 18.63597656 1.77695312 18.32273437 1 18 C-0.2062252 14.38132441 -0.10816918 11.07493749 -0.0625 7.3125 C-0.05798828 6.61060547 -0.05347656 5.90871094 -0.04882812 5.18554688 C-0.03706927 3.45699462 -0.01913454 1.72848635 0 0 Z " fill="#0D9DF5" transform="translate(48,18)"/>
<path d="M0 0 C0.33 0.99 0.66 1.98 1 3 C3.32891096 4.02700444 3.32891096 4.02700444 6.0625 4.6875 C6.98160156 4.93886719 7.90070312 5.19023438 8.84765625 5.44921875 C9.55792969 5.63097656 10.26820312 5.81273437 11 6 C11 6.66 11 7.32 11 8 C15.98283716 9.14051606 20.94468132 10.22225866 26 11 C26.6212008 18.70288993 24.8741903 23.3723673 21 30 C20.43152344 29.79503906 19.86304687 29.59007813 19.27734375 29.37890625 C14.49394668 27.70990794 10.03596345 26.67791816 5 26 C2.525 25.01 2.525 25.01 0 24 C0 16.08 0 8.16 0 0 Z " fill="#0271FE" transform="translate(48,33)"/>
<path d="M0 0 C2.37804242 0.71341273 4.75588381 1.42741254 7.1328125 2.14453125 C8.97835443 2.69517659 10.8271408 3.2351202 12.6796875 3.76171875 C17.39825012 5.11705057 21.67596791 6.61040332 26 9 C26 11.31 26 13.62 26 16 C19.56318772 15.48914188 14.04057576 14.27057103 8 12 C8 11.34 8 10.68 8 10 C7.05125 9.855625 6.1025 9.71125 5.125 9.5625 C2 9 2 9 0 8 C0 5.36 0 2.72 0 0 Z " fill="#3AEAA7" transform="translate(49,18)"/>
<path d="M0 0 C0.33 0.66 0.66 1.32 1 2 C2.85830888 2.35628752 2.85830888 2.35628752 5.0625 2.4375 C9.78889351 2.85829179 13.66040134 4.15095362 18 6 C19.485 6.5878125 19.485 6.5878125 21 7.1875 C21.66 7.455625 22.32 7.72375 23 8 C22.34 10.64 21.68 13.28 21 16 C20.43152344 15.79503906 19.86304687 15.59007812 19.27734375 15.37890625 C14.49394668 13.70990794 10.03596345 12.67791816 5 12 C2.0625 10.9375 2.0625 10.9375 0 10 C0 6.7 0 3.4 0 0 Z " fill="#0448FC" transform="translate(48,47)"/>
<path d="M0 0 C6.78475524 1.31317843 13.48306278 2.66058664 20 5 C18.50902342 8.7952131 16.24299151 10.61042731 13 13 C12.34 12.34 11.68 11.68 11 11 C9.14516546 10.39286197 7.26578615 9.85868948 5.375 9.375 C4.37210938 9.11460938 3.36921875 8.85421875 2.3359375 8.5859375 C1.56507812 8.39257812 0.79421875 8.19921875 0 8 C0 5.36 0 2.72 0 0 Z " fill="#0425FB" transform="translate(48,57)"/>
<path d="M0 0 C0.33 0.99 0.66 1.98 1 3 C3.32891096 4.02700444 3.32891096 4.02700444 6.0625 4.6875 C6.98160156 4.93886719 7.90070312 5.19023438 8.84765625 5.44921875 C9.55792969 5.63097656 10.26820312 5.81273437 11 6 C11 6.66 11 7.32 11 8 C15.98283716 9.14051606 20.94468132 10.22225866 26 11 C25.67 12.65 25.34 14.3 25 16 C15.45727929 14.36794515 15.45727929 14.36794515 11.3125 12.4375 C7.82503682 10.92407258 4.76604575 10.38429038 1 10 C0.67 6.7 0.34 3.4 0 0 Z " fill="#0189FD" transform="translate(48,33)"/>
<path d="M0 0 C0.33 0 0.66 0 1 0 C1 2.64 1 5.28 1 8 C3.64 8.66 6.28 9.32 9 10 C9 10.66 9 11.32 9 12 C17.91 13.98 17.91 13.98 27 16 C27 17.98 27 19.96 27 22 C26.67 21.34 26.34 20.68 26 20 C24.0109058 19.58124333 22.02081428 19.16693299 20.02734375 18.76953125 C16.07353021 17.76449736 12.31350184 16.37758142 8.5 14.9375 C7.78126709 14.66776367 7.06253418 14.39802734 6.32202148 14.12011719 C1.13807455 12.13807455 1.13807455 12.13807455 0 11 C-0.07226502 9.14712498 -0.0838122 7.29166122 -0.0625 5.4375 C-0.05347656 4.42558594 -0.04445312 3.41367187 -0.03515625 2.37109375 C-0.02355469 1.58863281 -0.01195312 0.80617188 0 0 Z " fill="#24C2CF" transform="translate(48,18)"/>
<path d="M0 0 C2.37804242 0.71341273 4.75588381 1.42741254 7.1328125 2.14453125 C8.97835443 2.69517659 10.8271408 3.2351202 12.6796875 3.76171875 C17.39825012 5.11705057 21.67596791 6.61040332 26 9 C26 10.65 26 12.3 26 14 C25.67 13.01 25.34 12.02 25 11 C22.97201149 10.51878239 20.93877564 10.0544746 18.890625 9.66796875 C12.537661 8.19991896 5.83269307 5.91634653 0 3 C0 2.01 0 1.02 0 0 Z " fill="#54F3A2" transform="translate(49,18)"/>
<path d="M0 0 C3.00611771 0.64416808 6.00284336 1.31570021 9 2 C9.98033203 2.2172876 9.98033203 2.2172876 10.98046875 2.43896484 C13.15693129 2.92510094 15.32845154 3.42990296 17.5 3.9375 C18.21865234 4.09508789 18.93730469 4.25267578 19.67773438 4.41503906 C21.71875 4.90234375 21.71875 4.90234375 25 6 C25.33 6.99 25.66 7.98 26 9 C19.56318772 8.48914188 14.04057576 7.27057103 8 5 C8 4.34 8 3.68 8 3 C7.05125 2.87625 6.1025 2.7525 5.125 2.625 C2 2 2 2 0 0 Z " fill="#2CD6BA" transform="translate(49,25)"/>
<path d="M0 0 C7.7498635 0.52541447 14.6450086 2.55591476 22 5 C22.99 3.68 23.98 2.36 25 1 C24.28571429 9.57142857 24.28571429 9.57142857 21 13 C21 11.35 21 9.7 21 8 C10.55615429 4.7981671 10.55615429 4.7981671 0 2 C0 1.34 0 0.68 0 0 Z " fill="#0965F7" transform="translate(49,47)"/>
<path d="M0 0 C5.25981452 0.97380173 10.1917962 2.59888976 15.25 4.3125 C16.17296875 4.60833984 17.0959375 4.90417969 18.046875 5.20898438 C18.9234375 5.50740234 19.8 5.80582031 20.703125 6.11328125 C21.50395508 6.37923096 22.30478516 6.64518066 23.12988281 6.91918945 C23.74702148 7.27585693 24.36416016 7.63252441 25 8 C25.33 9.32 25.66 10.64 26 12 C20.06 10.02 14.12 8.04 8 6 C8 5.34 8 4.68 8 4 C7.236875 3.855625 6.47375 3.71125 5.6875 3.5625 C3 3 3 3 0 2 C0 1.34 0 0.68 0 0 Z " fill="#17B5DC" transform="translate(49,30)"/>
<path d="M0 0 C0.66 0 1.32 0 2 0 C2.90479892 3.07863177 3.10558102 5.78923311 3.0625 8.9921875 C3.05476563 9.94480469 3.04703125 10.89742187 3.0390625 11.87890625 C3.01312267 13.86849091 2.98708181 15.85807426 2.9609375 17.84765625 C2.92173501 22.68916358 2.9672414 27.23962831 4 32 C0.30738762 27.50464579 -0.1281907 24.09985239 -0.09765625 18.359375 C-0.09443359 17.28945313 -0.09121094 16.21953125 -0.08789062 15.1171875 C-0.07951172 14.00601563 -0.07113281 12.89484375 -0.0625 11.75 C-0.05798828 10.62335937 -0.05347656 9.49671875 -0.04882812 8.3359375 C-0.03705397 5.55723783 -0.0206084 2.77864591 0 0 Z " fill="#1715E8" transform="translate(21,26)"/>
<path d="M0 0 C6.16336603 0.41374448 11.32526486 1.58206938 17 4 C18.485 4.5878125 18.485 4.5878125 20 5.1875 C20.66 5.455625 21.32 5.72375 22 6 C21.67 6.66 21.34 7.32 21 8 C13.78069368 6.55613874 6.94889267 4.42211826 0 2 C0 1.34 0 0.68 0 0 Z " fill="#0358FE" transform="translate(49,49)"/>
<path d="M0 0 C2.64 0.66 5.28 1.32 8 2 C8 2.66 8 3.32 8 4 C16.91 5.98 16.91 5.98 26 8 C26 9.98 26 11.96 26 14 C25.53078125 13.40703125 25.0615625 12.8140625 24.578125 12.203125 C20.99517503 9.14133139 17.20788293 8.11522665 12.75 6.75 C11.48929688 6.3478125 11.48929688 6.3478125 10.203125 5.9375 C8.13887606 5.28069352 6.06987637 4.63885073 4 4 C4 3.34 4 2.68 4 2 C2.68 2 1.36 2 0 2 C0 1.34 0 0.68 0 0 Z " fill="#29CCC5" transform="translate(49,26)"/>
<path d="M0 0 C0.928125 0.639375 1.85625 1.27875 2.8125 1.9375 C5.84219943 4.08622093 5.84219943 4.08622093 9 5 C9 5.66 9 6.32 9 7 C9.556875 7.10957031 10.11375 7.21914063 10.6875 7.33203125 C16.03341031 8.44275248 20.93063816 9.97225526 26 12 C22.49952344 13.16682552 21.59553671 12.78199761 18.18359375 11.63671875 C17.25482422 11.32669922 16.32605469 11.01667969 15.36914062 10.69726562 C14.40169922 10.36404297 13.43425781 10.03082031 12.4375 9.6875 C11.46619141 9.36587891 10.49488281 9.04425781 9.49414062 8.71289062 C2.26702009 6.26702009 2.26702009 6.26702009 0 4 C0 2.68 0 1.36 0 0 Z " fill="#10A8E8" transform="translate(48,29)"/>
<path d="M0 0 C0.33 0.99 0.66 1.98 1 3 C1.928125 3.103125 2.85625 3.20625 3.8125 3.3125 C7.21829376 3.80903256 10.53542968 4.54337297 13.875 5.375 C14.82117187 5.60960937 15.76734375 5.84421875 16.7421875 6.0859375 C17.85980469 6.53839844 17.85980469 6.53839844 19 7 C19.33 7.99 19.66 8.98 20 10 C13.18882219 8.95212649 6.31603219 7.85240164 0 5 C0 3.35 0 1.7 0 0 Z " fill="#0239FD" transform="translate(48,52)"/>
<path d="M0 0 C0.33 0 0.66 0 1 0 C1 2.64 1 5.28 1 8 C-1.64 8 -4.28 8 -7 8 C-6.21625 7.236875 -5.4325 6.47375 -4.625 5.6875 C-1.92742283 3.09108195 -1.92742283 3.09108195 0 0 Z " fill="#4C6971" transform="translate(95,88)"/>
<path d="M0 0 C2.66666667 2.66666667 5.33333333 5.33333333 8 8 C5.36 8 2.72 8 0 8 C0 5.36 0 2.72 0 0 Z " fill="#4C6971" transform="translate(0,88)"/>
<path d="M0 0 C2.64 0 5.28 0 8 0 C8 2.64 8 5.28 8 8 C5.33333333 5.33333333 2.66666667 2.66666667 0 0 Z " fill="#4C6971" transform="translate(88,0)"/>
<path d="M0 0 C2.64 0 5.28 0 8 0 C5.33333333 2.66666667 2.66666667 5.33333333 0 8 C0 5.36 0 2.72 0 0 Z " fill="#4C6971" transform="translate(0,0)"/>
<path d="M0 0 C1.60495567 0.11442461 3.20898119 0.24194694 4.8125 0.375 C5.70582031 0.44460937 6.59914063 0.51421875 7.51953125 0.5859375 C10 1 10 1 13 3 C13 3.66 13 4.32 13 5 C10.02277453 4.29666462 7.14743457 3.41751463 4.25 2.4375 C3.45078125 2.16808594 2.6515625 1.89867188 1.828125 1.62109375 C1.22484375 1.41613281 0.6215625 1.21117188 0 1 C0 0.67 0 0.34 0 0 Z " fill="#32DDB3" transform="translate(62,29)"/>
<path d="M0 0 C2.31 0.66 4.62 1.32 7 2 C6.34 2.66 5.68 3.32 5 4 C2.375 3.625 2.375 3.625 0 3 C0 2.01 0 1.02 0 0 Z " fill="#62F2A8" transform="translate(49,18)"/>
</svg>
